Format                           : MPEG-TS
File size                        : 607 MiB
Duration                         : 7mn 1s
Overall bit rate mode            : Variable
Overall bit rate                 : 12.1 Mbps

Video
ID                               : 626 (0x272)
Menu ID                          : 1 (0x1)
Format                           : MPEG Video
Format version                   : Version 2
Format profile                   : Main@High
Format settings, BVOP            : Yes
Format settings, Matrix          : Custom
Codec ID                         : 2
Duration                         : 7mn 1s
Bit rate mode                    : Variable
Bit rate                         : 11.1 Mbps
Maximum bit rate                 : 18.0 Mbps
Width                            : 1 920 pixels
Height                           : 1 080 pixels
Display aspect ratio             : 16:9
Frame rate                       : 29.970 fps
Standard                         : Component
Color space                      : YUV
Chroma subsampling               : 4:2:0
Bit depth                        : 8 bits
Scan type                        : Interlaced
Scan order                       : Top Field First
Compression mode                 : Lossy
Bits/(Pixel*Frame)               : 0.179
Stream size                      : 557 MiB (92%)
Color primaries                  : BT.709
Transfer characteristics         : BT.709
Matrix coefficients              : BT.709

Audio
ID                               : 625 (0x271)
Menu ID                          : 1 (0x1)
Format                           : AC-3
Format/Info                      : Audio Coding 3
Mode extension                   : CM (complete main)
Codec ID                         : 129
Duration                         : 7mn 1s
Bit rate mode                    : Constant
Bit rate                         : 384 Kbps
Channel(s)                       : 6 channels
Channel positions                : Front: L C R, Side: L R, LFE
Sampling rate                    : 48.0 KHz
Bit depth                        : 16 bits
Compression mode                 : Lossy
Stream size                      : 19.3 MiB (3%)
Language                         : English

Text
ID                               : 626 (0x272)-608-1
Menu ID                          : 1 (0x1)
Format                           : EIA-608
Muxing mode                      : A/53 / DTVCC Transport
Muxing mode, more info           : Muxed in Video #1
Duration                         : 7mn 1s
Bit rate mode                    : Constant
Stream size                      : 0.00 Byte (0%)
